<?xml version="1.0" encoding="utf-8"?>
<!-- Generator: Adobe Illustrator 16.0.0, SVG Export Plug-In . SVG Version: 6.00 Build 0)  -->
<!DOCTYPE svg PUBLIC "-//W3C//DTD SVG 1.1//EN" "http://www.w3.org/Graphics/SVG/1.1/DTD/svg11.dtd">
<svg version="1.1" id="Layer_1" xmlns="http://www.w3.org/2000/svg" xmlns:xlink="http://www.w3.org/1999/xlink" x="0px" y="0px"
	 width="600px" height="600px" viewBox="0 0 600 600" enable-background="new 0 0 600 600" xml:space="preserve">
<path id="color_x5F_2" fill="#B2B0AD" d="M585.521,308.892c-11.303,17.194-27.105,29.661-39.613,38.599
	c-19.463,13.913-40.145,25.649-61.729,35.079c0.244-4.459,0.469-9.44,0.673-14.845c18.581-8.574,36.437-18.945,53.339-31.029
	c11.57-8.27,26.143-19.73,36.24-35.093c17.539-26.679,12.602-47.381,8.098-57.348c-13.654-30.22-47.982-29.902-62.107-28.361
	c-11.824,1.289-23.23,3.905-34.33,7.842c-0.086-5.049-0.188-9.727-0.307-13.932c10.752-3.493,21.79-5.858,33.199-7.103
	c35.936-3.92,63.504,9.236,75.639,36.088C604.197,259.977,600.879,285.529,585.521,308.892z M115.13,367.716
	c-18.575-8.571-36.424-18.94-53.321-31.021c-11.569-8.27-26.144-19.73-36.242-35.093c-17.538-26.679-12.601-47.381-8.097-57.348
	c13.655-30.219,47.983-29.902,62.108-28.361c11.822,1.289,23.226,3.903,34.324,7.84c0.089-5.034,0.193-9.706,0.316-13.928
	c-10.753-3.493-21.792-5.859-33.202-7.104c-35.938-3.916-63.506,9.235-75.64,36.088c-9.573,21.187-6.257,46.738,9.102,70.101
	c11.302,17.194,27.106,29.661,39.613,38.599c19.46,13.911,40.138,25.646,61.718,35.075
	C115.563,378.104,115.335,373.123,115.13,367.716z"/>
<path id="color_x5F_1" fill="#3AC9C2" d="M479.475,204.618c-0.207-5.022-4.289-8.97-9.315-9.062
	c-42.945-0.784-117.077-15.403-170.159-15.403c-53.078,0-127.207,14.619-170.151,15.403c-5.028,0.092-9.106,4.043-9.316,9.068
	c-1.705,40.859-1.032,153.265,2.111,187.438c0.421,4.577,4.05,8.203,8.632,8.564c50.473,3.977,104.625,19.222,164.098,19.222
	c59.478,0,122.03-15.248,173.304-19.225c4.604-0.355,8.256-3.974,8.675-8.573C480.48,357.755,481.122,244.534,479.475,204.618z
	 M462.239,266.837c0.002,1.221-0.984,2.215-2.205,2.218c-0.002,0-0.004,0-0.006,0c-1.219,0-2.21-0.986-2.212-2.205
	c-0.015-4.278-0.032-8.464-0.059-12.515c-0.007-1.222,0.977-2.218,2.199-2.226c0.004,0,0.008,0,0.013,0
	c1.216,0,2.205,0.981,2.212,2.198C462.207,258.364,462.226,262.554,462.239,266.837z M462.082,241.777
	c0.013,1.222-0.968,2.222-2.19,2.233c-0.006,0-0.015,0-0.021,0c-1.212,0-2.198-0.976-2.212-2.19
	c-0.043-4.456-0.093-8.651-0.148-12.512c-0.018-1.222,0.959-2.226,2.182-2.243c0.009,0,0.021,0,0.032,0
	c1.205,0,2.192,0.97,2.209,2.18C461.989,233.113,462.039,237.315,462.082,241.777z M452.679,208.009c0.009,0,0.017,0,0.025,0
	c2.321,0.027,4.519,0.003,6.531-0.066l2.214-0.076l0.073,2.212c0.063,1.868,0.125,4.103,0.183,6.654
	c0.028,1.221-0.938,2.234-2.159,2.261c-0.017,0.001-0.034,0.001-0.053,0.001c-1.197,0-2.183-0.957-2.208-2.161
	c-0.037-1.602-0.077-3.077-0.114-4.415c-1.441,0.027-2.951,0.03-4.517,0.012c-1.221-0.014-2.201-1.015-2.187-2.236
	C450.481,208.983,451.469,208.009,452.679,208.009z M397.342,205.497c0.143-1.214,1.246-2.084,2.455-1.938
	c4.497,0.528,8.918,1.035,13.234,1.504c1.215,0.133,2.091,1.223,1.959,2.438c-0.122,1.133-1.081,1.972-2.195,1.972
	c-0.081,0-0.161-0.004-0.242-0.013c-4.328-0.472-8.762-0.978-13.271-1.508C398.067,207.809,397.199,206.709,397.342,205.497z
	 M370.856,202.355c0.142-1.214,1.25-2.087,2.453-1.939c4.39,0.514,8.762,1.037,13.093,1.554l0.153,0.018
	c1.211,0.146,2.077,1.246,1.933,2.459c-0.135,1.123-1.09,1.949-2.192,1.949c-0.089,0-0.177-0.005-0.266-0.015l-0.153-0.019
	c-4.326-0.517-8.695-1.039-13.082-1.553C371.581,204.667,370.713,203.568,370.856,202.355z M346.747,197.512
	c4.117,0.405,8.464,0.861,13.29,1.391c1.214,0.134,2.09,1.227,1.957,2.441c-0.125,1.132-1.083,1.97-2.195,1.97
	c-0.081,0-0.163-0.004-0.245-0.013c-4.809-0.529-9.14-0.982-13.241-1.386c-1.214-0.12-2.103-1.202-1.983-2.418
	C344.45,198.281,345.519,197.386,346.747,197.512z M320.064,195.373c4.208,0.24,8.578,0.544,13.36,0.933
	c1.218,0.099,2.125,1.166,2.025,2.384c-0.094,1.156-1.062,2.032-2.201,2.032c-0.061,0-0.121-0.002-0.183-0.008
	c-4.746-0.385-9.081-0.688-13.252-0.924c-1.22-0.069-2.152-1.114-2.082-2.333C317.801,196.237,318.87,195.319,320.064,195.373z
	 M293.223,194.83c4.565-0.107,8.877-0.107,13.439-0.003c1.223,0.027,2.189,1.04,2.162,2.26c-0.028,1.204-1.014,2.162-2.211,2.162
	c-0.018,0-0.033,0-0.051-0.001c-4.497-0.1-8.741-0.098-13.235,0.003c-0.019,0.001-0.036,0.001-0.054,0.001
	c-1.197,0-2.182-0.957-2.209-2.16C291.036,195.871,292.003,194.858,293.223,194.83z M266.462,196.314
	c4.673-0.381,9.168-0.695,13.359-0.936c1.201-0.058,2.264,0.862,2.335,2.082c0.069,1.219-0.863,2.264-2.082,2.334
	c-4.155,0.238-8.616,0.55-13.254,0.928c-0.061,0.005-0.121,0.008-0.181,0.008c-1.141,0-2.108-0.876-2.202-2.033
	C264.338,197.481,265.244,196.414,266.462,196.314z M239.852,198.915c4.798-0.528,9.145-0.983,13.289-1.392
	c1.208-0.119,2.298,0.769,2.418,1.984s-0.768,2.298-1.984,2.418c-4.127,0.407-8.458,0.861-13.24,1.388
	c-0.082,0.008-0.164,0.013-0.245,0.013c-1.112,0-2.07-0.838-2.195-1.97C237.762,200.142,238.638,199.049,239.852,198.915z
	 M213.325,202.002c4.381-0.525,8.807-1.053,13.251-1.574c1.202-0.147,2.311,0.725,2.454,1.94c0.143,1.212-0.726,2.311-1.939,2.453
	c-4.441,0.521-8.862,1.049-13.241,1.573c-0.089,0.01-0.177,0.015-0.266,0.015c-1.104,0-2.058-0.825-2.192-1.949
	C211.246,203.248,212.112,202.147,213.325,202.002z M186.845,205.077c4.316-0.471,8.738-0.977,13.237-1.503
	c1.207-0.148,2.313,0.725,2.454,1.939c0.143,1.213-0.727,2.312-1.939,2.454c-4.511,0.528-8.945,1.035-13.272,1.507
	c-0.081,0.009-0.162,0.013-0.243,0.013c-1.113,0-2.071-0.839-2.195-1.972C184.753,206.301,185.63,205.209,186.845,205.077z
	 M138.483,209.972l0.173-2.102l2.108,0.072c2.013,0.069,4.208,0.093,6.531,0.066c0.008,0,0.017,0,0.025,0
	c1.21,0,2.197,0.974,2.211,2.187c0.013,1.221-0.965,2.222-2.187,2.236c-1.594,0.021-3.137,0.014-4.606-0.013
	c-0.085,1.307-0.167,2.797-0.245,4.456c-0.056,1.185-1.034,2.108-2.208,2.108c-0.036,0-0.07-0.001-0.106-0.002
	c-1.22-0.057-2.163-1.093-2.105-2.313C138.2,213.996,138.337,211.743,138.483,209.972z M137.65,229.231
	c0.029-1.202,1.013-2.156,2.209-2.156c0.018,0,0.037,0,0.056,0.001c1.22,0.03,2.186,1.044,2.155,2.266
	c-0.094,3.838-0.174,8.03-0.239,12.499c-0.017,1.21-1.004,2.18-2.21,2.18c-0.011,0-0.021,0-0.034,0
	c-1.221-0.019-2.196-1.023-2.179-2.244C137.474,237.292,137.554,233.084,137.65,229.231z M137.272,254.314
	c0.01-1.215,0.998-2.194,2.212-2.194c0.005,0,0.011,0,0.017,0c1.222,0.01,2.204,1.008,2.194,2.229
	c-0.031,4.043-0.052,8.228-0.062,12.511c-0.003,1.219-0.992,2.206-2.211,2.206c-0.002,0-0.003,0-0.005,0
	c-1.222-0.003-2.209-0.996-2.207-2.217C137.22,262.559,137.241,258.366,137.272,254.314z M137.212,279.387
	c-0.003-1.221,0.985-2.214,2.206-2.217c0.002,0,0.004,0,0.005,0c1.219,0,2.208,0.987,2.212,2.206
	c0.009,4.135,0.028,8.32,0.055,12.516c0.008,1.222-0.976,2.218-2.197,2.226c-0.004,0-0.01,0-0.014,0
	c-1.215,0-2.204-0.98-2.212-2.197C137.24,287.718,137.222,283.529,137.212,279.387z M137.376,304.462
	c-0.013-1.22,0.965-2.222,2.187-2.235c0.009,0,0.018,0,0.025,0c1.211,0,2.198,0.975,2.212,2.186
	c0.046,4.208,0.102,8.394,0.166,12.519c0.02,1.221-0.956,2.227-2.177,2.246c-0.012,0-0.024,0-0.036,0
	c-1.206,0-2.191-0.968-2.211-2.177C137.478,312.868,137.422,308.676,137.376,304.462z M137.771,329.54
	c-0.025-1.221,0.944-2.231,2.166-2.257c0.016,0,0.031,0,0.047,0c1.2,0,2.185,0.959,2.21,2.164c0.09,4.298,0.191,8.483,0.304,12.509
	c0.034,1.223-0.928,2.24-2.149,2.272c-0.021,0.002-0.042,0.002-0.063,0.002c-1.193,0-2.176-0.95-2.209-2.15
	C137.964,338.045,137.863,333.849,137.771,329.54z M139.05,367.179c-0.201-3.715-0.392-7.938-0.566-12.555
	c-0.045-1.221,0.907-2.246,2.127-2.294c1.234-0.028,2.247,0.907,2.293,2.127c0.173,4.592,0.362,8.793,0.562,12.482
	c0.066,1.22-0.869,2.261-2.088,2.328c-0.041,0.002-0.081,0.002-0.122,0.002C140.09,369.27,139.113,368.358,139.05,367.179z
	 M149.692,388.717c-0.056,0-0.112-0.003-0.168-0.007c-2.198-0.166-4.387-0.309-6.569-0.426l-1.65-0.088l-0.383-1.607
	c-0.351-1.469-0.671-3.713-0.979-6.861c-0.119-1.214,0.77-2.296,1.986-2.415c1.213-0.125,2.297,0.771,2.416,1.985
	c0.187,1.902,0.378,3.464,0.571,4.667c1.642,0.098,3.289,0.21,4.94,0.335c1.218,0.093,2.13,1.155,2.039,2.371
	C151.808,387.833,150.838,388.717,149.692,388.717z M160.374,207.479c4.015-0.256,8.344-0.602,13.236-1.056
	c1.219-0.111,2.295,0.782,2.406,1.998c0.113,1.216-0.781,2.293-1.997,2.406c-4.934,0.459-9.305,0.808-13.362,1.067
	c-0.049,0.003-0.096,0.004-0.144,0.004c-1.158,0-2.13-0.899-2.205-2.07C158.23,208.608,159.155,207.556,160.374,207.479z
	 M178.034,389.662c-0.15,1.108-1.099,1.914-2.188,1.914c-0.1,0-0.2-0.007-0.3-0.021c-4.675-0.633-8.929-1.162-13.004-1.616
	c-1.214-0.136-2.088-1.229-1.954-2.442c0.135-1.214,1.233-2.097,2.442-1.952c4.112,0.455,8.4,0.989,13.111,1.628
	C177.351,387.336,178.2,388.451,178.034,389.662z M204.04,393.598c-0.172,1.091-1.112,1.868-2.182,1.868
	c-0.114,0-0.231-0.009-0.347-0.026c-4.359-0.687-8.687-1.362-12.982-2.011c-1.208-0.181-2.039-1.309-1.856-2.516
	s1.306-2.046,2.518-1.857c4.304,0.65,8.64,1.326,13.008,2.015C203.406,391.261,204.229,392.393,204.04,393.598z M230.04,397.576
	c-0.161,1.102-1.106,1.892-2.186,1.892c-0.107,0-0.214-0.006-0.323-0.021c-4.374-0.64-8.714-1.3-13.022-1.97
	c-1.208-0.188-2.034-1.319-1.847-2.524c0.187-1.21,1.328-2.03,2.525-1.847c4.296,0.667,8.623,1.326,12.983,1.963
	C229.378,395.245,230.215,396.366,230.04,397.576z M256.133,400.851c-0.121,1.134-1.081,1.976-2.197,1.976
	c-0.079,0-0.158-0.004-0.239-0.013c-4.195-0.451-8.481-0.961-13.104-1.562c-1.211-0.157-2.066-1.266-1.909-2.478
	c0.156-1.211,1.273-2.073,2.477-1.909c4.591,0.597,8.847,1.104,13.01,1.551C255.385,398.546,256.264,399.637,256.133,400.851z
	 M280.15,404.881c-0.034,0-0.068-0.003-0.104-0.003c-4.26-0.196-8.7-0.475-13.195-0.831c-1.218-0.098-2.126-1.162-2.03-2.38
	c0.099-1.216,1.15-2.117,2.38-2.03c4.447,0.352,8.836,0.628,13.048,0.822c1.221,0.057,2.164,1.091,2.108,2.312
	C282.303,403.956,281.325,404.881,280.15,404.881z M306.519,405.084c-3.596,0.109-7.176,0.166-10.638,0.166
	c-0.868,0-1.735-0.002-2.602-0.009c-1.222-0.011-2.204-1.007-2.195-2.229c0.01-1.217,0.997-2.194,2.211-2.194
	c0.006,0,0.011,0,0.017,0c4.263,0.032,8.629-0.02,13.072-0.156c1.225-0.073,2.24,0.923,2.278,2.143
	C308.699,404.025,307.739,405.045,306.519,405.084z M332.909,403.438c-4.558,0.41-8.99,0.752-13.179,1.018
	c-0.047,0.002-0.096,0.004-0.143,0.004c-1.157,0-2.129-0.9-2.205-2.073c-0.075-1.218,0.85-2.27,2.068-2.346
	c4.15-0.264,8.545-0.603,13.063-1.009c1.225-0.095,2.29,0.789,2.4,2.007C335.024,402.254,334.126,403.33,332.909,403.438z
	 M359.159,400.535c-4.653,0.592-8.94,1.105-13.106,1.57c-0.082,0.011-0.167,0.015-0.249,0.015c-1.109,0-2.068-0.836-2.194-1.968
	c-0.136-1.214,0.739-2.307,1.953-2.442c4.143-0.462,8.408-0.975,13.038-1.563c1.208-0.151,2.319,0.701,2.474,1.913
	S360.371,400.38,359.159,400.535z M385.289,396.928c-4.322,0.624-8.675,1.249-13.053,1.857c-0.104,0.014-0.206,0.02-0.308,0.02
	c-1.086,0-2.034-0.801-2.188-1.907c-0.168-1.209,0.676-2.326,1.886-2.494c4.368-0.607,8.714-1.229,13.03-1.854
	c1.2-0.168,2.33,0.663,2.505,1.873C387.337,395.63,386.499,396.753,385.289,396.928z M411.331,393.172
	c-4.294,0.599-8.636,1.223-13.018,1.859c-0.105,0.016-0.215,0.024-0.319,0.024c-1.081,0-2.026-0.793-2.188-1.895
	c-0.175-1.209,0.662-2.33,1.872-2.508c4.389-0.637,8.738-1.263,13.041-1.861c1.196-0.175,2.328,0.674,2.495,1.884
	C413.386,391.885,412.54,393.004,411.331,393.172z M437.374,389.904c-4.074,0.432-8.335,0.931-13.026,1.527
	c-0.095,0.011-0.188,0.017-0.281,0.017c-1.098,0-2.049-0.816-2.191-1.933c-0.153-1.212,0.704-2.319,1.916-2.473
	c4.723-0.601,9.013-1.104,13.116-1.538c1.205-0.112,2.304,0.752,2.433,1.966C439.469,388.687,438.589,389.774,437.374,389.904z
	 M438.03,355.155c-0.907,0.153-91.15,15.393-138.299,15.393c-47.149,0-137.127-15.239-138.03-15.393
	c-1.807-0.309-3.021-2.021-2.713-3.827c0.308-1.808,2.027-3.02,3.828-2.713c0.897,0.151,90.328,15.298,136.916,15.298
	c46.596,0,136.287-15.146,137.187-15.3c1.814-0.298,3.521,0.909,3.827,2.715C441.052,353.136,439.836,354.849,438.03,355.155z
	 M158.941,299.754c-0.053-1.832,1.389-3.36,3.221-3.413c0.901-0.026,90.649-2.607,137.569-2.607
	c46.918,0,136.934,2.581,137.839,2.607c1.831,0.053,3.272,1.581,3.22,3.413c-0.052,1.798-1.526,3.222-3.314,3.222
	c-0.033,0-0.065,0-0.099-0.003c-0.903-0.025-90.823-2.604-137.646-2.604c-46.825,0-136.478,2.578-137.377,2.604
	C160.533,303.057,158.995,301.585,158.941,299.754z M440.729,246.555c-0.348,1.797-2.086,2.966-3.89,2.624
	c-0.898-0.175-90.561-17.479-137.109-17.479c-46.556,0-135.942,17.302-136.839,17.478c-0.214,0.042-0.428,0.063-0.637,0.063
	c-1.556,0-2.945-1.101-3.253-2.685c-0.351-1.798,0.823-3.54,2.622-3.89c0.904-0.176,90.918-17.6,138.107-17.6
	c47.186,0,137.467,17.423,138.375,17.599C439.905,243.015,441.08,244.756,440.729,246.555z M439.363,211.889
	c-0.048,0-0.098-0.001-0.146-0.004c-4.068-0.263-8.439-0.612-13.36-1.071c-1.216-0.114-2.11-1.191-1.998-2.407
	c0.115-1.216,1.174-2.117,2.408-1.997c4.879,0.455,9.21,0.801,13.235,1.06c1.219,0.079,2.143,1.131,2.065,2.35
	C441.491,210.99,440.519,211.889,439.363,211.889z M459.077,386.589l-0.384,1.607l-1.65,0.088c-2.166,0.115-4.356,0.257-6.572,0.422
	c-0.056,0.004-0.112,0.006-0.166,0.006c-1.147,0-2.118-0.886-2.203-2.047c-0.091-1.219,0.822-2.279,2.041-2.37
	c1.658-0.123,3.306-0.232,4.939-0.33c0.19-1.205,0.376-2.765,0.553-4.658c0.11-1.217,1.184-2.11,2.406-1.998
	c1.216,0.112,2.111,1.189,1.998,2.406C459.747,382.851,459.432,385.099,459.077,386.589z M460.863,367.125
	c-0.057,1.184-1.033,2.105-2.207,2.105c-0.034,0-0.071,0-0.107-0.002c-1.221-0.059-2.162-1.095-2.104-2.315
	c0.178-3.656,0.34-7.855,0.484-12.479c0.039-1.22,1.091-2.214,2.28-2.141c1.221,0.039,2.18,1.059,2.142,2.279
	C461.203,359.222,461.041,363.444,460.863,367.125z M461.678,342.03c-0.025,1.205-1.011,2.164-2.209,2.164
	c-0.017,0-0.032,0-0.05-0.002c-1.221-0.026-2.188-1.037-2.162-2.26c0.089-4.023,0.164-8.207,0.231-12.507
	c0.021-1.223,1.058-2.173,2.246-2.178c1.223,0.02,2.196,1.023,2.177,2.246C461.845,333.803,461.769,337.998,461.678,342.03z
	 M462.071,316.959c-0.014,1.214-1,2.189-2.212,2.189c-0.007,0-0.015,0-0.021,0c-1.223-0.013-2.203-1.013-2.19-2.235
	c0.044-4.123,0.08-8.307,0.108-12.514c0.009-1.216,0.995-2.196,2.212-2.196c0.004,0,0.008,0,0.015,0
	c1.221,0.009,2.203,1.004,2.196,2.227C462.151,308.642,462.114,312.831,462.071,316.959z M462.239,291.897
	c-0.004,1.219-0.993,2.205-2.211,2.205c-0.003,0-0.005,0-0.007,0c-1.223-0.004-2.21-0.997-2.205-2.218
	c0.013-4.175,0.019-8.34,0.018-12.46l2.211-0.058h2.212C462.258,283.548,462.253,287.718,462.239,291.897z"/>
</svg>
